# xmcd
#
# Track frame offsets: 
#        150
#        25233
#        46288
#        71419
#
# Disc length: 1297 seconds
#
# Revision: 1
# Processed by: cddbd v1.5.2PL0 Copyright (c) Steve Scherf et al.
# Submitted via: ExactAudioCopyFreeDBPlugin 1.0
#
DISCID=2c050f04
DTITLE=Interpol - Precipitate EP
DYEAR=2001
DGENRE=Rock
TTITLE0=Precipitate
TTITLE1=Song Seven
TTITLE2=PDA (Alternative Version)
TTITLE3=A Time To Be So Small
EXTD=
EXTT0=
EXTT1=
EXTT2=
EXTT3=
PLAYORDER=
